<svg width="88" height="88" fill="none" xmlns="http://www.w3.org/2000/svg"><path d="M81.125 77.688a3.437 3.437 0 01-3.438 3.437H74.25v3.438a3.437 3.437 0 11-6.875 0v-3.438h-3.438a3.437 3.437 0 110-6.875h3.438v-3.438a3.437 3.437 0 116.875 0v3.438h3.438a3.437 3.437 0 013.437 3.438zm0-53.626v33a3.437 3.437 0 11-6.875 0V27.5h-6.875v10.313a3.437 3.437 0 11-6.875 0V27.5h-33v10.313a3.437 3.437 0 11-6.875 0V27.5H13.75v53.625h36.438a3.437 3.437 0 110 6.875H10.312a3.437 3.437 0 01-3.437-3.438v-60.5a3.437 3.437 0 013.438-3.437h10.475C22.153 9.027 32.04 0 44 0s21.847 9.027 23.212 20.625h10.475a3.437 3.437 0 013.438 3.438zM60.27 20.625C58.956 12.831 52.16 6.875 44 6.875s-14.956 5.956-16.27 13.75h32.54z" fill="#7E4E22"/></svg>