<?xml version="1.0" encoding="UTF-8"?><!DOCTYPE svg PUBLIC "-//W3C//DTD SVG 1.1//EN" "http://www.w3.org/Graphics/SVG/1.1/DTD/svg11.dtd"><svg xmlns="http://www.w3.org/2000/svg" xmlns:xlink="http://www.w3.org/1999/xlink"><defs><linearGradient id="paint0_linear" x1="4.91" y1="15.34" x2="31.35" y2="17" gradientUnits="userSpaceOnUse"><stop offset=".29" stop-color="#fff"/><stop offset=".78" stop-color="#fff" stop-opacity="0"/></linearGradient>
<linearGradient id="paint0_linear" x1="4.91415" y1="15.338" x2="31.354" y2="16.9979" gradientUnits="userSpaceOnUse">
<stop offset="0.288448" stop-color="white"/>
<stop offset="0.780176" stop-color="white" stop-opacity="0"/>
</linearGradient>
<linearGradient id="paint0_linear" x1=".76" y1="8.72" x2="20.96" y2="9.99" gradientUnits="userSpaceOnUse"><stop offset=".29" stop-color="#555248"/><stop offset=".78" stop-color="#1B1A17" stop-opacity="0"/></linearGradient></defs><symbol id="arrow-breadcrumbs" viewBox="0 0 6 9">
<path d="M1 1L5 4.5L1 8" stroke="#BDB9B5"/>
</symbol><symbol id="arrow-left" viewBox="0 0 7 12">
<path d="M6 1L1 6L6 11" stroke="#1B1A17" stroke-width="0.5"/>
</symbol><symbol id="arrow-next" viewBox="0 0 7 12">
<path d="M1 11L6 6L1 1" stroke="#1B1A17" stroke-width="0.5"/>
</symbol><symbol id="arrow-prev" viewBox="0 0 7 11">
<path d="M6 0.5L1 5.5L6 10.5" stroke="#1B1A17" stroke-width="0.5"/>
</symbol><symbol id="arrow-right" viewBox="0 0 7 12">
<path d="M1 11L6 6L1 1" stroke="#1B1A17" stroke-width="0.5"/>
</symbol><symbol id="carousel_arrow-left" viewBox="0 0 14 25">
<path d="M13 1L1 12.5L13 24" stroke="#1B1A17" stroke-width="0.5"/>
</symbol><symbol id="carousel_arrow-right" viewBox="0 0 14 25">
<path d="M1 24L13 12.5L1 1" stroke="#1B1A17" stroke-width="0.5"/>
</symbol><symbol id="cart" viewBox="0 0 18 16"><path d="M17.9 3.05a.59.59 0 00-.45-.23L6.28 2.36a.56.56 0 00-.6.53c-.01.3.23.55.55.56l10.41.43L14.6 9.9H5.5L3.84 1.45a.55.55 0 00-.36-.41L.8.04a.59.59 0 00-.75.3c-.12.29.03.6.33.71l2.4.9 1.67 8.6A.57.57 0 005 11h.28l-.63 1.66a.43.43 0 00.06.42.49.49 0 00.4.2h.44c-.28.28-.45.66-.45 1.08 0 .9.78 1.64 1.73 1.64.96 0 1.74-.73 1.74-1.64 0-.42-.17-.8-.45-1.09h3.78c-.28.3-.45.67-.45 1.1 0 .9.78 1.63 1.74 1.63.95 0 1.73-.73 1.73-1.64 0-.42-.17-.8-.45-1.09h.55a.47.47 0 00.48-.45.47.47 0 00-.48-.46H5.79L6.3 11H15a.57.57 0 00.56-.38l2.4-7.09a.52.52 0 00-.07-.48zM6.83 15.1c-.42 0-.77-.32-.77-.73 0-.4.35-.72.77-.72.43 0 .77.32.77.72 0 .4-.34.73-.77.73zm6.36 0a.75.75 0 01-.77-.73c0-.4.34-.72.77-.72.42 0 .77.32.77.72 0 .4-.35.73-.77.73z" fill="#1B1A17"/></symbol><symbol id="checkbox-tick" viewBox="0 0 7 6">
<path d="M0.526245 2.45325L2.83394 4.95325L6.52625 0.953247" stroke="white" stroke-opacity="0.75"/>
</symbol><symbol id="dropdown-arrow" viewBox="0 0 12 7">
<path d="M1 1L6 6L11 1" stroke="#1B1A17" stroke-width="0.5"/>
</symbol><symbol id="facebook-icon" viewBox="0 0 12 22"><path d="M8.83.57C5.7.57 3.55 2.3 3.55 5.47v2.74H0v3.72h3.55v9.52h4.24v-9.52h3.54l.53-3.72H7.79V5.84c0-1.07.33-1.8 2.04-1.8H12V.72C11.62.67 10.33.57 8.83.57z" fill="#5C5C50"/></symbol><symbol id="footer-logo" viewBox="0 0 130 35"><path d="M39.56 16.9a3.82 3.82 0 012.57.9c.1.09.2.13.27.13.19 0 .3-.28.36-.84h.33c-.04.63-.06 1.76-.06 3.39h-.32a7 7 0 00-.34-1.59 2.26 2.26 0 00-.71-.95 2.29 2.29 0 00-.81-.5 2.61 2.61 0 00-.97-.18c-.94 0-1.64.46-2.1 1.38a7.64 7.64 0 00-.69 3.43c0 1.36.24 2.5.72 3.42s1.18 1.37 2.13 1.37c.31 0 .63-.06.93-.17a2.15 2.15 0 00.8-.52 2 2 0 00.72-.98c.14-.39.24-.96.32-1.72h.32c0 1.7.02 2.87.06 3.53h-.33c-.02-.3-.07-.5-.12-.63-.05-.13-.12-.2-.21-.2a.6.6 0 00-.3.12 3.8 3.8 0 01-2.59.91 5.4 5.4 0 01-2.6-.6 4.23 4.23 0 01-1.72-1.74 5.7 5.7 0 01-.62-2.73c0-1.03.21-1.94.63-2.73a4.58 4.58 0 011.75-1.85 5.04 5.04 0 012.58-.66zm11.83 0c.99 0 1.85.2 2.59.6a4.18 4.18 0 011.74 1.74c.4.76.61 1.67.61 2.72 0 1.03-.2 1.94-.63 2.73a4.55 4.55 0 01-1.76 1.85c-.75.44-1.6.66-2.57.66a5.4 5.4 0 01-2.6-.6 4.23 4.23 0 01-1.72-1.74 5.7 5.7 0 01-.62-2.73c0-1.03.21-1.94.63-2.73a4.58 4.58 0 011.75-1.85 5.04 5.04 0 012.58-.66zm-.06.24c-.51 0-.96.21-1.35.63-.4.41-.7 1-.91 1.74-.21.75-.31 1.6-.31 2.56 0 .97.11 1.83.35 2.56.24.74.56 1.31.96 1.71.41.4.87.6 1.36.6.51 0 .97-.2 1.36-.61.4-.42.69-1 .9-1.75.21-.75.32-1.6.32-2.56a8.2 8.2 0 00-.37-2.57 4.04 4.04 0 00-.96-1.7c-.4-.4-.85-.6-1.35-.6zm17.16.23c-.31.04-.54.12-.7.24a.92.92 0 00-.29.53c-.04.24-.07.6-.07 1.08v7.8h-.71l-6.07-7.7v5.38c0 .55.02.96.08 1.22.06.25.18.44.36.56.19.11.5.2.91.24V27a20.92 20.92 0 00-1.5-.04c-.52 0-.93.01-1.23.04v-.28c.31-.05.53-.13.67-.24a.82.82 0 00.3-.53c.05-.24.08-.6.08-1.08v-6.3c0-.35-.03-.6-.08-.77a.46.46 0 00-.3-.32c-.14-.06-.36-.1-.67-.11v-.28a13.77 13.77 0 002.42 0l5.42 6.68v-4.39c0-.55-.02-.95-.08-1.2a.81.81 0 00-.37-.56c-.18-.12-.49-.2-.9-.25v-.28a20.92 20.92 0 002.72 0v.28zM81.7 26.9c-.16 1.06-.48 1.79-.97 2.19a2.2 2.2 0 01-.78.39 3.22 3.22 0 01-1.02.15c-.5 0-1-.08-1.5-.24a20.16 20.16 0 01-1.8-.71 57.58 57.58 0 01-.6-.25 54.96 54.96 0 00-.7-.28l-.33-.1a2.31 2.31 0 01-.59.21 2.23 2.23 0 01-.59.08 1 1 0 01-.47-.1c-.12-.05-.18-.14-.18-.26 0-.25.25-.38.77-.38.34 0 .7.07 1.06.2.32-.1.65-.22 1-.38l.3-.13.35-.12a5.05 5.05 0 01-2.28-.76 4.3 4.3 0 01-1.5-1.73 5.89 5.89 0 01-.52-2.55c0-1.03.21-1.94.63-2.73a4.58 4.58 0 011.75-1.85 5.04 5.04 0 012.58-.66c.99 0 1.85.2 2.59.6a4.18 4.18 0 011.74 1.75c.4.76.61 1.67.61 2.72 0 .99-.2 1.88-.59 2.66a4.55 4.55 0 01-1.65 1.83c-.7.45-1.52.7-2.42.73a3.41 3.41 0 00-.6.13 7.3 7.3 0 00-.63.24c-.3.13-.59.23-.87.32l1.13.1c1.19.1 2.04.15 2.57.15a8 8 0 001.05-.07 3.7 3.7 0 001.37-.38c.33-.18.61-.46.84-.84l.25.07zm-8.02-4.83c0 .97.11 1.83.35 2.56.24.74.56 1.31.96 1.71.41.4.87.6 1.36.6.51 0 .97-.2 1.36-.61.4-.42.69-1 .9-1.75.21-.75.32-1.6.32-2.56a8.2 8.2 0 00-.37-2.57 4.04 4.04 0 00-.96-1.7c-.4-.4-.85-.6-1.35-.6-.5 0-.96.2-1.35.62-.4.41-.7 1-.91 1.74-.2.75-.31 1.6-.31 2.56zm19.46-4.7c-.3.05-.54.12-.69.24a.92.92 0 00-.3.53c-.04.24-.06.6-.06 1.08v3.7c0 1.34-.2 2.33-.58 2.97a2.57 2.57 0 01-1.09.97 4.1 4.1 0 01-1.75.34 4 4 0 01-2.52-.7 2.52 2.52 0 01-.86-1.3 8.64 8.64 0 01-.23-2.23v-4.4c0-.35-.03-.6-.08-.77a.46.46 0 00-.3-.32c-.14-.06-.36-.1-.67-.11v-.28c.48.03 1.2.04 2.19.04.97 0 1.7-.01 2.22-.04v.28a2.9 2.9 0 00-.74.11.5.5 0 00-.3.32c-.07.16-.1.42-.1.77v5.28c0 .98.15 1.7.43 2.17.29.46.8.69 1.5.69.94 0 1.6-.32 1.98-.94.39-.64.58-1.53.58-2.69v-3.7c0-.54-.04-.94-.1-1.2a.86.86 0 00-.38-.56c-.19-.12-.48-.2-.88-.25v-.28a20.58 20.58 0 002.73 0v.28zm10.37 7.5c0 .86.03 1.57.1 2.13a83.5 83.5 0 00-3.21-.04c-2.04 0-3.56.01-4.57.04v-.28c.31-.02.54-.06.68-.11a.46.46 0 00.29-.32c.06-.16.08-.42.08-.77v-6.95c0-.35-.02-.6-.08-.77a.46.46 0 00-.3-.32c-.13-.06-.36-.1-.67-.11v-.28a180.15 180.15 0 007.5 0 24.65 24.65 0 00-.1 2.07c0 .41.01.73.04.95h-.32c-.14-1-.4-1.7-.76-2.1s-.88-.6-1.54-.6h-.57c-.3 0-.5.02-.63.07a.42.42 0 00-.27.28c-.05.13-.07.34-.07.64v3.48h.45c.5 0 .87-.19 1.12-.55.26-.36.44-.8.54-1.3h.33c-.03.39-.05.83-.05 1.31v.68c0 .47.03 1.14.09 1.98h-.32c-.2-1.23-.77-1.84-1.71-1.84h-.45v3.52c0 .3.02.52.07.66a.42.42 0 00.27.27c.13.05.34.07.63.07h.68c.66 0 1.2-.23 1.6-.67.4-.46.7-1.23.87-2.31h.32c-.03.3-.04.7-.04 1.17zm6.66-7.96c.48 0 .87.04 1.16.14.29.09.58.22.88.4l.27.14a.54.54 0 00.2.06c.1 0 .16-.05.2-.14.05-.1.09-.26.12-.48h.32c-.05.63-.07 1.7-.07 3.2h-.32a4.5 4.5 0 00-.35-1.45 2.66 2.66 0 00-.82-1.1 1.84 1.84 0 00-1.21-.44c-.46 0-.84.13-1.12.4-.28.25-.42.6-.42 1.03 0 .33.07.61.2.85.15.25.34.47.6.68.24.2.63.46 1.15.8l.45.32c.55.36.99.68 1.3.95a3.3 3.3 0 01.78.95c.2.35.3.77.3 1.25 0 .6-.15 1.1-.46 1.5-.3.4-.73.71-1.26.92a4.75 4.75 0 01-1.75.3 5.1 5.1 0 01-1.3-.13 4.29 4.29 0 01-.95-.38c-.2-.13-.37-.2-.48-.2-.08 0-.15.05-.2.16-.04.09-.08.24-.1.46h-.33c.04-.59.06-1.85.06-3.78h.32c.06 1.04.3 1.9.7 2.55.4.64 1.02.96 1.85.96.5 0 .92-.13 1.24-.4.33-.27.5-.66.5-1.17 0-.52-.18-.97-.51-1.34-.34-.37-.87-.8-1.6-1.26a16.77 16.77 0 01-1.34-.95 3.48 3.48 0 01-.83-.95 2.53 2.53 0 01-.32-1.3c0-.55.14-1.02.42-1.4a2.55 2.55 0 011.15-.87c.47-.2 1-.28 1.57-.28zm15.14.18c-.06.88-.1 1.68-.1 2.38 0 .44.02.8.05 1.06h-.32a5.53 5.53 0 00-.93-2.42c-.38-.47-.9-.7-1.58-.7h-.32v8c0 .39.04.67.11.85a.68.68 0 00.42.36c.2.06.53.1.97.1V27a121.7 121.7 0 00-2.66-.04c-.6 0-1.45.01-2.57.04v-.28c.44-.01.76-.04.96-.1a.63.63 0 00.42-.36c.08-.18.12-.46.12-.86v-7.99h-.3c-.45 0-.84.1-1.15.3-.31.19-.58.52-.8.97a7.64 7.64 0 00-.58 1.85h-.32c.03-.27.04-.62.04-1.06 0-.7-.03-1.5-.1-2.38.86.03 2.3.04 4.33.04 2.04 0 3.47-.01 4.31-.04z" fill="#fff"/><path d="M27.18 11.54a11.55 11.55 0 01-4.72 15.64 11.5 11.5 0 01-6.8 1.3 11.54 11.54 0 01-8.84-6.02 11.56 11.56 0 014.72-15.64 11.52 11.52 0 0110.24-.34 11.5 11.5 0 015.4 5.06z" stroke="url(#paint0_linear)" stroke-width="2"/></symbol><symbol id="heart" viewBox="0 0 21 18"><path d="M19.97 5.77a5.23 5.23 0 00-9.52-2.48 5.15 5.15 0 00-9.42 2.48c-.02.12-.11.77.16 1.81a7.68 7.68 0 002.63 3.98L10.44 17l6.74-5.44a7.67 7.67 0 002.63-3.98c.27-1.04.18-1.69.16-1.8zm-.87 1.66a7.03 7.03 0 01-2.41 3.64l-6.24 5.04-6.13-5.04A7.03 7.03 0 011.9 7.43c-.26-.99-.16-1.55-.16-1.55v-.04a4.46 4.46 0 014.42-4.18 4.3 4.3 0 013.94 2.49l.34.72.33-.72a4.44 4.44 0 014.05-2.49c2.32 0 4.18 1.76 4.42 4.21 0 .01.1.57-.16 1.56z" fill="#1B1A17" stroke="#1B1A17" stroke-width=".75"/></symbol><symbol id="icon-basket" viewBox="0 0 88 88">
<path d="M81.125 77.6875C81.125 79.586 79.586 81.125 77.6875 81.125H74.25V84.5625C74.25 86.461 72.711 88 70.8125 88C68.914 88 67.375 86.461 67.375 84.5625V81.125H63.9375C62.039 81.125 60.5 79.586 60.5 77.6875C60.5 75.789 62.039 74.25 63.9375 74.25H67.375V70.8125C67.375 68.914 68.914 67.375 70.8125 67.375C72.711 67.375 74.25 68.914 74.25 70.8125V74.25H77.6875C79.586 74.25 81.125 75.789 81.125 77.6875ZM81.125 24.0625V57.0625C81.125 58.961 79.586 60.5 77.6875 60.5C75.789 60.5 74.25 58.961 74.25 57.0625V27.5H67.375V37.8125C67.375 39.711 65.836 41.25 63.9375 41.25C62.039 41.25 60.5 39.711 60.5 37.8125V27.5H27.5V37.8125C27.5 39.711 25.961 41.25 24.0625 41.25C22.164 41.25 20.625 39.711 20.625 37.8125V27.5H13.75V81.125H50.1875C52.086 81.125 53.625 82.664 53.625 84.5625C53.625 86.461 52.086 88 50.1875 88H10.3125C8.41397 88 6.875 86.461 6.875 84.5625V24.0625C6.875 22.164 8.41397 20.625 10.3125 20.625H20.7876C22.1531 9.02739 32.0415 0 44 0C55.9585 0 65.8469 9.02739 67.2124 20.625H77.6875C79.586 20.625 81.125 22.164 81.125 24.0625ZM60.2695 20.625C58.9564 12.8313 52.1611 6.875 44 6.875C35.8389 6.875 29.0436 12.8313 27.7305 20.625H60.2695Z" fill="#7E4E22"/>
</symbol><symbol id="icon-close" viewBox="0 0 21 21">
<path d="M13.2598 10.4867L20.6817 3.06475C21.0707 2.67575 21.0707 2.03975 20.6817 1.65075L19.3228 0.29175C18.9338 -0.09725 18.2978 -0.09725 17.9088 0.29175L10.4867 7.71375L3.06475 0.29175C2.67575 -0.09725 2.03975 -0.09725 1.65075 0.29175L0.29175 1.65075C-0.09725 2.03975 -0.09725 2.67575 0.29175 3.06475L7.71375 10.4867L0.29275 17.9088C-0.09625 18.2978 -0.09625 18.9338 0.29275 19.3228L1.65175 20.6817C2.04075 21.0707 2.67675 21.0707 3.06575 20.6817L10.4878 13.2598L17.9097 20.6817C18.2987 21.0707 18.9347 21.0707 19.3237 20.6817L20.6828 19.3228C21.0718 18.9338 21.0718 18.2978 20.6828 17.9088L13.2598 10.4867Z" fill="#4E4C46"/>
</symbol><symbol id="icon-mark" viewBox="0 0 47 47">
<path d="M23.5 47C36.4787 47 47 36.4787 47 23.5C47 10.5213 36.4787 0 23.5 0C10.5213 0 0 10.5213 0 23.5C0 36.4787 10.5213 47 23.5 47Z" fill="#63A63E"/>
<path d="M35.3504 15.0016C35.0718 14.7247 34.622 14.7247 34.3435 15.0016L21.2127 28.1317C20.9341 28.4085 20.4843 28.4085 20.2057 28.1317L14.4091 22.3357C14.1305 22.0589 13.6807 22.0589 13.4021 22.3357L10.8848 24.8531C10.6079 25.1316 10.6079 25.5814 10.8848 25.86L20.2057 35.1817C20.4843 35.4585 20.9341 35.4585 21.2127 35.1817L23.7307 32.6636L24.7377 31.6567L37.8678 18.5266C38.1446 18.248 38.1446 17.7982 37.8678 17.5196L35.3504 15.0016V15.0016Z" fill="white"/>
</symbol><symbol id="instagram-icon" viewBox="0 0 23 24"><path d="M6.66.67A6.64 6.64 0 000 7.28v9.56c0 3.65 2.99 6.6 6.66 6.6h9.68a6.64 6.64 0 006.66-6.6V7.28a6.64 6.64 0 00-6.66-6.6H6.66zm0 1.96h9.68a4.64 4.64 0 014.69 4.65v9.56c0 2.6-2.07 4.65-4.69 4.65H6.66a4.64 4.64 0 01-4.69-4.65V7.28c0-2.6 2.07-4.65 4.69-4.65zM17.67 4.6c-.76 0-1.38.61-1.38 1.37 0 .76.62 1.37 1.38 1.37.76 0 1.38-.61 1.38-1.37 0-.76-.62-1.37-1.38-1.37zm-6.17 1.6c-3.25 0-5.9 2.64-5.9 5.87a5.9 5.9 0 0011.8 0 5.9 5.9 0 00-5.9-5.86zm0 1.96a3.9 3.9 0 110 7.82 3.9 3.9 0 110-7.82z" fill="#5C5C50"/></symbol><symbol id="logo-footer" viewBox="0 0 130 35">
<path d="M39.558 16.892C40.118 16.892 40.594 16.9713 40.986 17.13C41.378 17.2887 41.7607 17.5127 42.134 17.802C42.2367 17.886 42.3253 17.928 42.4 17.928C42.5867 17.928 42.708 17.648 42.764 17.088H43.086C43.0487 17.7227 43.03 18.852 43.03 20.476H42.708C42.624 19.7853 42.512 19.258 42.372 18.894C42.232 18.53 41.994 18.2127 41.658 17.942C41.4247 17.718 41.154 17.55 40.846 17.438C40.538 17.3167 40.216 17.256 39.88 17.256C38.9373 17.256 38.2373 17.718 37.78 18.642C37.3227 19.5567 37.094 20.7 37.094 22.072C37.094 23.4347 37.332 24.5733 37.808 25.488C38.284 26.4027 38.9933 26.86 39.936 26.86C40.2533 26.86 40.566 26.804 40.874 26.692C41.1913 26.5707 41.4573 26.398 41.672 26.174C42.0173 25.9127 42.2553 25.586 42.386 25.194C42.526 24.802 42.6333 24.228 42.708 23.472H43.03C43.03 25.1613 43.0487 26.3373 43.086 27H42.764C42.736 26.7013 42.694 26.4913 42.638 26.37C42.5913 26.2393 42.5213 26.174 42.428 26.174C42.3533 26.174 42.2553 26.2113 42.134 26.286C41.714 26.5847 41.3127 26.8133 40.93 26.972C40.5473 27.1213 40.0853 27.196 39.544 27.196C38.5547 27.196 37.6867 26.9953 36.94 26.594C36.2027 26.1927 35.6287 25.614 35.218 24.858C34.8073 24.0927 34.602 23.1827 34.602 22.128C34.602 21.1013 34.812 20.1913 35.232 19.398C35.652 18.6047 36.2353 17.9887 36.982 17.55C37.738 17.1113 38.5967 16.892 39.558 16.892ZM51.3891 16.892C52.3784 16.892 53.2418 17.0927 53.9791 17.494C54.7258 17.8953 55.3044 18.4787 55.7151 19.244C56.1258 20 56.3311 20.9053 56.3311 21.96C56.3311 22.9867 56.1211 23.8967 55.7011 24.69C55.2811 25.4833 54.6931 26.0993 53.9371 26.538C53.1904 26.9767 52.3364 27.196 51.3751 27.196C50.3858 27.196 49.5178 26.9953 48.7711 26.594C48.0338 26.1927 47.4598 25.614 47.0491 24.858C46.6384 24.0927 46.4331 23.1827 46.4331 22.128C46.4331 21.1013 46.6431 20.1913 47.0631 19.398C47.4831 18.6047 48.0664 17.9887 48.8131 17.55C49.5691 17.1113 50.4278 16.892 51.3891 16.892ZM51.3331 17.144C50.8198 17.144 50.3671 17.354 49.9751 17.774C49.5831 18.1847 49.2798 18.7633 49.0651 19.51C48.8598 20.2567 48.7571 21.1107 48.7571 22.072C48.7571 23.0427 48.8738 23.8967 49.1071 24.634C49.3498 25.3713 49.6718 25.9407 50.0731 26.342C50.4838 26.7433 50.9364 26.944 51.4311 26.944C51.9444 26.944 52.3971 26.7387 52.7891 26.328C53.1811 25.908 53.4798 25.3247 53.6851 24.578C53.8998 23.8313 54.0071 22.9773 54.0071 22.016C54.0071 21.0453 53.8858 20.1913 53.6431 19.454C53.4098 18.7167 53.0878 18.1473 52.6771 17.746C52.2758 17.3447 51.8278 17.144 51.3331 17.144ZM68.4853 17.368C68.1773 17.4147 67.9486 17.494 67.7993 17.606C67.6593 17.718 67.5613 17.8953 67.5053 18.138C67.4586 18.3807 67.4353 18.74 67.4353 19.216V27.028L67.0993 27.014L66.7213 27.028L60.6453 19.328V24.704C60.6453 25.2547 60.6733 25.6607 60.7293 25.922C60.7853 26.174 60.9066 26.3607 61.0933 26.482C61.2799 26.594 61.5833 26.6733 62.0033 26.72V27C61.6393 26.972 61.1353 26.958 60.4913 26.958C59.9779 26.958 59.5719 26.972 59.2733 27V26.72C59.5813 26.6733 59.8053 26.594 59.9453 26.482C60.0946 26.37 60.1926 26.1927 60.2393 25.95C60.2953 25.7073 60.3233 25.348 60.3233 24.872V18.572C60.3233 18.2173 60.2953 17.9607 60.2393 17.802C60.1926 17.6433 60.0946 17.536 59.9453 17.48C59.8053 17.424 59.5813 17.3867 59.2733 17.368V17.088C59.5719 17.116 59.9779 17.13 60.4913 17.13C60.9579 17.13 61.3593 17.116 61.6953 17.088L67.1133 23.766V19.384C67.1133 18.8333 67.0853 18.432 67.0293 18.18C66.9733 17.9187 66.8519 17.732 66.6653 17.62C66.4786 17.4987 66.1753 17.4147 65.7553 17.368V17.088C66.1193 17.116 66.6233 17.13 67.2673 17.13C67.7899 17.13 68.1959 17.116 68.4853 17.088V17.368ZM81.6991 26.902C81.5404 27.9567 81.2184 28.6847 80.7331 29.086C80.5278 29.254 80.2664 29.3847 79.9491 29.478C79.6411 29.5807 79.3004 29.632 78.9271 29.632C78.4231 29.632 77.9238 29.5527 77.4291 29.394C76.9438 29.2353 76.3418 28.9973 75.6231 28.68C75.4458 28.6053 75.2498 28.5213 75.0351 28.428C74.8298 28.344 74.5964 28.2507 74.3351 28.148L73.9991 28.05C73.8218 28.1433 73.6258 28.2133 73.4111 28.26C73.2058 28.316 73.0098 28.344 72.8231 28.344C72.6271 28.344 72.4684 28.3113 72.3471 28.246C72.2258 28.19 72.1651 28.1013 72.1651 27.98C72.1651 27.728 72.4218 27.602 72.9351 27.602C73.2804 27.602 73.6351 27.6673 73.9991 27.798C74.3164 27.7047 74.6524 27.5787 75.0071 27.42C75.0724 27.392 75.1704 27.35 75.3011 27.294C75.4318 27.2473 75.5484 27.2053 75.6511 27.168C74.7831 27.084 74.0224 26.832 73.3691 26.412C72.7251 25.9827 72.2258 25.404 71.8711 24.676C71.5258 23.948 71.3531 23.0987 71.3531 22.128C71.3531 21.1013 71.5631 20.1913 71.9831 19.398C72.4031 18.6047 72.9864 17.9887 73.7331 17.55C74.4891 17.1113 75.3478 16.892 76.3091 16.892C77.2984 16.892 78.1618 17.0927 78.8991 17.494C79.6458 17.8953 80.2244 18.4787 80.6351 19.244C81.0458 20 81.2511 20.9053 81.2511 21.96C81.2511 22.9493 81.0551 23.836 80.6631 24.62C80.2711 25.3947 79.7204 26.006 79.0111 26.454C78.3018 26.902 77.4944 27.1447 76.5891 27.182C76.3651 27.21 76.1644 27.252 75.9871 27.308C75.8098 27.364 75.5998 27.4433 75.3571 27.546C75.0584 27.6767 74.7691 27.784 74.4891 27.868L75.6231 27.966C76.8084 28.0687 77.6624 28.12 78.1851 28.12C78.5304 28.12 78.8804 28.0967 79.2351 28.05C79.8138 27.9847 80.2711 27.8587 80.6071 27.672C80.9431 27.4947 81.2231 27.2147 81.4471 26.832L81.6991 26.902ZM73.6771 22.072C73.6771 23.0427 73.7938 23.8967 74.0271 24.634C74.2698 25.3713 74.5918 25.9407 74.9931 26.342C75.4038 26.7433 75.8564 26.944 76.3511 26.944C76.8644 26.944 77.3171 26.7387 77.7091 26.328C78.1011 25.908 78.3998 25.3247 78.6051 24.578C78.8198 23.8313 78.9271 22.9773 78.9271 22.016C78.9271 21.0453 78.8058 20.1913 78.5631 19.454C78.3298 18.7167 78.0078 18.1473 77.5971 17.746C77.1958 17.3447 76.7478 17.144 76.2531 17.144C75.7398 17.144 75.2871 17.354 74.8951 17.774C74.5031 18.1847 74.1998 18.7633 73.9851 19.51C73.7798 20.2567 73.6771 21.1107 73.6771 22.072ZM93.1383 17.368C92.8303 17.4147 92.6016 17.494 92.4523 17.606C92.3123 17.718 92.2143 17.8953 92.1583 18.138C92.1116 18.3807 92.0883 18.74 92.0883 19.216V22.926C92.0883 24.2607 91.897 25.25 91.5143 25.894C91.2623 26.3047 90.8983 26.6267 90.4223 26.86C89.9463 27.084 89.363 27.196 88.6723 27.196C87.5896 27.196 86.7496 26.9627 86.1523 26.496C85.723 26.1507 85.4336 25.7167 85.2843 25.194C85.135 24.662 85.0603 23.92 85.0603 22.968V18.572C85.0603 18.2173 85.0323 17.9607 84.9763 17.802C84.9296 17.6433 84.8316 17.536 84.6823 17.48C84.5423 17.424 84.3183 17.3867 84.0103 17.368V17.088C84.4863 17.116 85.2143 17.13 86.1943 17.13C87.165 17.13 87.907 17.116 88.4203 17.088V17.368C88.0843 17.3867 87.837 17.424 87.6783 17.48C87.529 17.536 87.4263 17.6433 87.3703 17.802C87.3143 17.9607 87.2863 18.2173 87.2863 18.572V23.85C87.2863 24.83 87.4263 25.5533 87.7063 26.02C87.9956 26.4773 88.4996 26.706 89.2183 26.706C90.1516 26.706 90.8096 26.3933 91.1923 25.768C91.575 25.1333 91.7663 24.2373 91.7663 23.08V19.384C91.7663 18.8427 91.7336 18.4413 91.6683 18.18C91.603 17.9187 91.477 17.732 91.2903 17.62C91.1036 17.4987 90.8096 17.4147 90.4083 17.368V17.088C90.763 17.116 91.267 17.13 91.9203 17.13C92.443 17.13 92.849 17.116 93.1383 17.088V17.368ZM103.505 24.872C103.505 25.7307 103.537 26.44 103.603 27C102.968 26.972 101.899 26.958 100.397 26.958C98.362 26.958 96.8406 26.972 95.8326 27V26.72C96.1406 26.7013 96.3646 26.664 96.5046 26.608C96.654 26.552 96.752 26.4447 96.7986 26.286C96.8546 26.1273 96.8826 25.8707 96.8826 25.516V18.572C96.8826 18.2173 96.8546 17.9607 96.7986 17.802C96.752 17.6433 96.654 17.536 96.5046 17.48C96.3646 17.424 96.1406 17.3867 95.8326 17.368V17.088C96.8406 17.116 98.362 17.13 100.397 17.13C101.769 17.13 102.744 17.116 103.323 17.088C103.257 17.8627 103.225 18.5533 103.225 19.16C103.225 19.5707 103.239 19.888 103.267 20.112H102.945C102.805 19.1133 102.553 18.4133 102.189 18.012C101.825 17.6107 101.311 17.41 100.649 17.41H100.075C99.7853 17.41 99.5753 17.4333 99.4446 17.48C99.314 17.5267 99.2253 17.62 99.1786 17.76C99.132 17.8907 99.1086 18.1053 99.1086 18.404V21.876H99.5566C100.051 21.876 100.425 21.694 100.677 21.33C100.938 20.966 101.12 20.532 101.223 20.028H101.545C101.517 20.42 101.503 20.8587 101.503 21.344V22.016C101.503 22.492 101.531 23.1547 101.587 24.004H101.265C101.069 22.772 100.499 22.156 99.5566 22.156H99.1086V25.684C99.1086 25.9827 99.132 26.202 99.1786 26.342C99.2253 26.4727 99.314 26.5613 99.4446 26.608C99.5753 26.6547 99.7853 26.678 100.075 26.678H100.761C101.423 26.678 101.955 26.454 102.357 26.006C102.767 25.5487 103.057 24.7787 103.225 23.696H103.547C103.519 24.004 103.505 24.396 103.505 24.872ZM110.166 16.906C110.651 16.906 111.038 16.9527 111.328 17.046C111.617 17.1393 111.911 17.2747 112.21 17.452C112.312 17.508 112.401 17.5547 112.476 17.592C112.56 17.6293 112.63 17.648 112.686 17.648C112.77 17.648 112.835 17.6013 112.882 17.508C112.928 17.4053 112.966 17.2467 112.994 17.032H113.316C113.269 17.6573 113.246 18.7213 113.246 20.224H112.924C112.886 19.72 112.77 19.2393 112.574 18.782C112.387 18.3247 112.116 17.956 111.762 17.676C111.416 17.3867 111.01 17.242 110.544 17.242C110.086 17.242 109.713 17.3727 109.424 17.634C109.144 17.886 109.004 18.2313 109.004 18.67C109.004 18.9967 109.074 19.2813 109.214 19.524C109.354 19.7667 109.55 19.9907 109.802 20.196C110.054 20.392 110.441 20.6627 110.964 21.008L111.412 21.316C111.962 21.68 112.396 21.9973 112.714 22.268C113.031 22.5387 113.288 22.856 113.484 23.22C113.689 23.5747 113.792 23.99 113.792 24.466C113.792 25.0633 113.638 25.5673 113.33 25.978C113.022 26.3793 112.602 26.6827 112.07 26.888C111.547 27.0933 110.964 27.196 110.32 27.196C109.797 27.196 109.363 27.1493 109.018 27.056C108.672 26.9627 108.355 26.8367 108.066 26.678C107.86 26.5473 107.702 26.482 107.59 26.482C107.506 26.482 107.44 26.5333 107.394 26.636C107.347 26.7293 107.31 26.8833 107.282 27.098H106.96C106.997 26.51 107.016 25.25 107.016 23.318H107.338C107.403 24.3633 107.636 25.2127 108.038 25.866C108.439 26.51 109.055 26.832 109.886 26.832C110.39 26.832 110.805 26.6967 111.132 26.426C111.458 26.1553 111.622 25.768 111.622 25.264C111.622 24.7413 111.454 24.2933 111.118 23.92C110.782 23.5467 110.25 23.1267 109.522 22.66C108.962 22.296 108.514 21.9787 108.178 21.708C107.842 21.4373 107.566 21.12 107.352 20.756C107.137 20.3827 107.03 19.9533 107.03 19.468C107.03 18.908 107.17 18.4367 107.45 18.054C107.739 17.662 108.122 17.3727 108.598 17.186C109.074 16.9993 109.596 16.906 110.166 16.906ZM125.313 17.088C125.248 17.9747 125.215 18.768 125.215 19.468C125.215 19.9067 125.229 20.2613 125.257 20.532H124.935C124.711 19.384 124.403 18.5767 124.011 18.11C123.629 17.6433 123.101 17.41 122.429 17.41H122.107V25.404C122.107 25.796 122.145 26.0807 122.219 26.258C122.303 26.4353 122.443 26.5567 122.639 26.622C122.845 26.678 123.167 26.7107 123.605 26.72V27C122.429 26.972 121.543 26.958 120.945 26.958C120.357 26.958 119.503 26.972 118.383 27V26.72C118.822 26.7107 119.139 26.678 119.335 26.622C119.541 26.5567 119.681 26.4353 119.755 26.258C119.839 26.0807 119.881 25.796 119.881 25.404V17.41H119.573C119.125 17.41 118.743 17.508 118.425 17.704C118.117 17.9 117.851 18.2267 117.627 18.684C117.403 19.132 117.212 19.748 117.053 20.532H116.731C116.759 20.2613 116.773 19.9067 116.773 19.468C116.773 18.768 116.741 17.9747 116.675 17.088C117.525 17.116 118.967 17.13 121.001 17.13C123.036 17.13 124.473 17.116 125.313 17.088Z" fill="white"/>
<path d="M27.1835 11.5383C28.2138 13.4597 28.6449 15.5392 28.5432 17.5662C28.3469 21.4824 26.1638 25.1977 22.4601 27.1836C20.2951 28.3445 17.9286 28.7449 15.6625 28.4789C12.0343 28.0529 8.67015 25.9203 6.81481 22.4602C3.79881 16.8355 5.91356 9.83085 11.5382 6.81486C12.8783 6.09632 14.2943 5.66964 15.7152 5.51132C17.7979 5.27927 19.8948 5.62349 21.7774 6.47653C24.0085 7.48751 25.9361 9.21181 27.1835 11.5383Z" stroke="url(#paint0_linear)" stroke-width="2"/>

</symbol><symbol id="logo" viewBox="0 0 98 20"><path d="M27.14 6.34a3.27 3.27 0 012.2.78c.1.07.17.1.23.1.16 0 .27-.24.31-.72h.28c-.03.52-.05 1.44-.05 2.76h-.27c-.1-.52-.17-.89-.24-1.11a1.98 1.98 0 00-.36-.66 2.17 2.17 0 00-.93-.7 2.98 2.98 0 00-1.2-.24 2 2 0 00-1.37.52c-.38.34-.68.83-.9 1.47a6.91 6.91 0 00-.32 2.24c0 .87.12 1.62.35 2.24.23.62.55 1.1.96 1.43.41.32.88.48 1.4.48.4 0 .79-.08 1.17-.23a1.96 1.96 0 00.88-.68c.16-.23.28-.47.35-.72.07-.26.14-.65.2-1.18h.28c0 1.38.02 2.34.05 2.88h-.28a1.83 1.83 0 00-.1-.54c-.04-.11-.1-.17-.18-.17a.53.53 0 00-.26.1c-.36.25-.7.45-1.03.59-.33.12-.72.19-1.19.19a3.5 3.5 0 01-3.34-2 5.4 5.4 0 01-.46-2.35c0-.88.16-1.66.48-2.34.33-.68.78-1.2 1.36-1.58a3.58 3.58 0 011.98-.56zm9.94 0c.76 0 1.42.17 1.99.51.58.35 1.02.85 1.33 1.5.32.65.48 1.43.48 2.33a5.3 5.3 0 01-.49 2.34 3.7 3.7 0 01-1.36 1.58c-.57.38-1.23.57-1.96.57a3.5 3.5 0 01-3.34-2 5.4 5.4 0 01-.47-2.35c0-.88.16-1.66.48-2.34.33-.68.78-1.2 1.36-1.58a3.58 3.58 0 011.98-.56zm-.05.21c-.51 0-.96.18-1.36.54-.38.35-.68.85-.9 1.49a7.1 7.1 0 00-.3 2.2c0 .83.1 1.56.34 2.2.24.62.56 1.11.96 1.46a2 2 0 002.69-.02c.39-.36.69-.86.9-1.5.21-.64.32-1.37.32-2.2 0-.82-.12-1.56-.36-2.19a3.45 3.45 0 00-.95-1.46 2 2 0 00-1.34-.52zm14.12.2c-.28.01-.5.05-.63.13a.51.51 0 00-.27.33c-.05.15-.08.38-.08.69v7.16h-.27l-5.04-7.79v6.34c0 .31.02.54.07.7.06.15.16.26.31.33.15.06.4.1.71.12V15a15.76 15.76 0 00-1.22-.04c-.48 0-.86.02-1.12.04v-.24c.28-.02.49-.06.62-.12a.55.55 0 00.28-.34c.05-.16.07-.39.07-.7V7.79c0-.3-.02-.53-.07-.66a.43.43 0 00-.27-.28 2.3 2.3 0 00-.63-.1V6.5a13.15 13.15 0 002.05 0l4.24 6.53V7.9a2 2 0 00-.09-.7.5.5 0 00-.3-.32 1.98 1.98 0 00-.7-.14V6.5a15.76 15.76 0 002.34 0v.24zm11.18 8.6c-.17.6-.42 1.06-.75 1.37-.4.36-.93.54-1.62.54-.37 0-.73-.06-1.08-.17a13.2 13.2 0 01-1.33-.53 20.4 20.4 0 00-1.46-.58l-.28-.08c-.35.12-.68.18-1 .18-.37 0-.55-.08-.55-.24 0-.17.21-.25.65-.25.28 0 .58.03.9.1.25-.08.55-.19.88-.34.21-.1.37-.17.47-.2a3.57 3.57 0 01-1.77-.64 3.6 3.6 0 01-1.17-1.48 5.55 5.55 0 01-.4-2.2c0-.89.15-1.67.47-2.35.33-.68.78-1.2 1.36-1.58a3.58 3.58 0 011.98-.56c.76 0 1.42.17 2 .51.57.35 1.01.85 1.32 1.5.32.65.48 1.43.48 2.33a5.5 5.5 0 01-.43 2.23c-.29.65-.7 1.17-1.21 1.56a3.51 3.51 0 01-1.79.67v.02c-.2.02-.36.05-.5.1l-.56.2a5.96 5.96 0 01-.71.28c.88.18 1.64.32 2.25.42.63.1 1.14.16 1.55.16a2.9 2.9 0 001.34-.25c.34-.16.6-.43.78-.8l.18.08zm-7.32-4.57c0 .83.12 1.56.35 2.2.24.62.56 1.11.96 1.46a2 2 0 002.69-.02c.4-.36.7-.86.9-1.5.22-.64.32-1.37.32-2.2 0-.82-.12-1.56-.36-2.19a3.45 3.45 0 00-.94-1.46 2 2 0 00-1.35-.52c-.51 0-.96.18-1.35.54-.39.35-.69.85-.9 1.49a7.1 7.1 0 00-.32 2.2zm16.53-4.04c-.28.02-.49.06-.62.14a.51.51 0 00-.28.33c-.05.15-.07.38-.07.69v3.6a8 8 0 01-.12 1.5c-.07.4-.2.76-.37 1.05-.2.35-.5.62-.9.82-.38.2-.81.3-1.3.3-.88 0-1.55-.22-2.02-.65a2.44 2.44 0 01-.7-1.12 7.18 7.18 0 01-.18-1.86V7.78c0-.3-.03-.53-.08-.66a.43.43 0 00-.27-.28 2.3 2.3 0 00-.63-.1V6.5a24.84 24.84 0 003.06 0v.24c-.28.02-.5.05-.63.1a.43.43 0 00-.27.28c-.04.13-.07.35-.07.66v3.97c0 .64.05 1.17.13 1.6.1.42.27.76.54 1.01.28.26.7.39 1.23.39.85 0 1.44-.27 1.79-.82.34-.54.51-1.3.51-2.29V7.9c0-.44-.08-.73-.24-.9-.15-.15-.43-.24-.85-.26V6.5a15.76 15.76 0 002.34 0v.24zm8.65 6.72c0 .46.03.97.08 1.54a71.54 71.54 0 00-2.75-.04c-1.53 0-2.7.02-3.48.04v-.24c.3-.02.5-.05.63-.1a.43.43 0 00.27-.27c.05-.14.08-.36.08-.66V7.78c0-.3-.03-.53-.08-.66a.43.43 0 00-.27-.28 2.3 2.3 0 00-.63-.1V6.5a123.72 123.72 0 006 0 13.57 13.57 0 00-.06 2.16h-.27c-.06-.52-.13-.9-.22-1.15a.94.94 0 00-.44-.55c-.2-.12-.53-.18-.95-.18h-1c-.28 0-.5.02-.63.07a.4.4 0 00-.26.27 2 2 0 00-.08.66v2.83h.8c.28 0 .5-.07.64-.2a.96.96 0 00.3-.46 4 4 0 00.14-.69l.03-.24h.28c-.03.34-.04.72-.04 1.13v.58c0 .4.03.97.07 1.7h-.27a49.51 49.51 0 01-.07-.57 1.17 1.17 0 00-.34-.76 1.03 1.03 0 00-.74-.25h-.8v2.88c0 .3.03.52.08.66a.43.43 0 00.26.27c.14.04.35.06.64.06h.87c.5 0 .87-.06 1.13-.19.26-.13.46-.35.58-.63.12-.3.2-.73.26-1.3h.27a8.2 8.2 0 00-.03.86zm5.42-7.09a2.3 2.3 0 011.46.45 1 1 0 00.4.16c.08 0 .14-.04.18-.12.04-.08.07-.22.1-.4h.27c-.04.46-.06 1.28-.06 2.44h-.28a3.04 3.04 0 00-.56-1.63 1.62 1.62 0 00-1.4-.67c-.44 0-.79.13-1.06.4a1.3 1.3 0 00-.41 1c0 .3.07.56.2.78.15.23.33.42.54.58.22.16.53.36.93.61l.35.22c.5.31.9.59 1.18.83.3.23.54.5.71.8.18.3.27.66.27 1.07 0 .73-.24 1.29-.72 1.69-.48.4-1.1.59-1.83.59-.38 0-.7-.04-.95-.12a3.43 3.43 0 01-.7-.33c-.17-.1-.3-.16-.4-.16-.07 0-.13.04-.17.13a1.5 1.5 0 00-.1.4h-.27c.03-.45.05-1.4.05-2.89h.27c.06.81.26 1.47.6 1.97s.88.76 1.59.76c.43 0 .8-.13 1.1-.4.3-.27.46-.67.46-1.2 0-.45-.15-.83-.46-1.14a7 7 0 00-1.41-1.05 14.27 14.27 0 01-1.16-.77 2.83 2.83 0 01-.7-.8 2.2 2.2 0 01-.28-1.12c0-.67.22-1.19.65-1.54.43-.36.97-.54 1.6-.54zm12.19.13a15.8 15.8 0 00-.05 2.52h-.28a7.22 7.22 0 00-.24-1.36 1.1 1.1 0 00-.5-.66 2.2 2.2 0 00-1.1-.22h-.65v6.83c0 .33.03.58.1.73a.54.54 0 00.33.31 3 3 0 00.78.11V15a32.75 32.75 0 00-1.76-.04c-.8 0-1.4.02-1.78.04v-.24a3 3 0 00.78-.1.54.54 0 00.34-.32c.06-.15.1-.4.1-.73V6.78h-.66c-.5 0-.86.07-1.1.22-.24.13-.4.35-.5.66-.1.3-.18.75-.24 1.36h-.28a15.8 15.8 0 00-.05-2.52c.67.03 1.8.04 3.39.04a89 89 0 003.37-.04z" fill="#555248"/><path d="M18.01 5.7A9.1 9.1 0 0114.29 18a9.05 9.05 0 01-5.35 1.02A9.1 9.1 0 015.69 1.98a9.07 9.07 0 018.06-.27 9.05 9.05 0 014.26 3.98z" stroke="url(#paint0_linear)"/></symbol><symbol id="minus" viewBox="0 0 11 2">
<path d="M0.625 1L10.7 1" stroke="#1B1A17"/>
</symbol><symbol id="plus" viewBox="0 0 11 10">
<path d="M5.66248 0V10" stroke="#1B1A17"/>
<path d="M0.625 5L10.7 5" stroke="#1B1A17"/>
</symbol><symbol id="ruble" viewBox="0 0 10 13"><path d="M2.05.5h3.99a3.06 3.06 0 010 6.12h-4V.5zM2 6.5H0M2 0v13M.31 9.7h6.5" stroke="#1B1A17"/></symbol><symbol id="search" viewBox="0 0 16 16"><path d="M15.8 14.86l-3.84-3.84A6.75 6.75 0 006.74 0a6.74 6.74 0 100 13.49 6.7 6.7 0 004.27-1.53l3.85 3.84a.67.67 0 00.94-.94zm-9.06-2.72a5.4 5.4 0 01-5.4-5.4 5.41 5.41 0 015.4-5.4 5.41 5.41 0 015.4 5.4 5.41 5.41 0 01-5.4 5.4z" fill="#1B1A17"/></symbol><symbol id="twitter-icon" viewBox="0 0 22 18"><path d="M22 2.39a9.35 9.35 0 01-2.6.68 4.37 4.37 0 002-2.39 9.28 9.28 0 01-2.87 1.05 4.6 4.6 0 00-3.3-1.36 4.42 4.42 0 00-4.51 4.31c0 .34.04.67.12.98a13.02 13.02 0 01-9.3-4.5 4.14 4.14 0 00-.62 2.16c0 1.5.8 2.82 2.01 3.6a4.65 4.65 0 01-2.05-.55v.06a4.37 4.37 0 003.63 4.23 4.71 4.71 0 01-2.04.07 4.5 4.5 0 004.21 3 9.33 9.33 0 01-5.6 1.84A9.67 9.67 0 010 15.51a13.21 13.21 0 006.92 1.94A12.46 12.46 0 0019.75 4.62 8.97 8.97 0 0022 2.4" fill="#5C5C50"/></symbol></svg>